  <svg
          version="1.1"
          id="Layer_1"
          xmlns="http://www.w3.org/2000/svg"
          xmlns:xlink="http://www.w3.org/1999/xlink"
viewBox="0 0 1366 768"
        >
          <g
            id="Group_3473_00000036964164124690049910000010905165362406029486_"
            transform="translate(487.995 42.724)"
          >
            <path
              id="Path_2842_00000006683626872631534400000001308146587702592403_"
              class="st0"
              d="M173.5,392.5h26.8c0.4,0,0.8-0.2,1-0.6
		l35-65.2c0.3-0.6,1-0.8,1.6-0.5c0.2,0.1,0.4,0.3,0.5,0.5l35,65.2c0.2,0.4,0.6,0.6,1,0.6h25.6c0.7,0,1.2-0.6,1.2-1.2
		c0-0.2-0.1-0.4-0.2-0.6l-63.3-115.4c-0.3-0.6-1-0.8-1.6-0.5c-0.2,0.1-0.4,0.3-0.5,0.5l-63.3,115.4c-0.3,0.6-0.2,1.3,0.4,1.6
		C173.1,392.4,173.3,392.5,173.5,392.5z"
            />
            <path
              id="Path_2843_00000168816437423574830720000017453691642863723401_"
              class="st0"
              d="M360.3,340.1l-16.9-0.1
		c-0.7,0-1.2,0.6-1.3,1.2c0,0,0,0,0,0v49.9c0,0.7-0.5,1.2-1.2,1.2c0,0,0,0,0,0h-21.6c-0.7,0-1.2-0.5-1.2-1.2c0,0,0,0,0,0V275.9
		c0-0.7,0.5-1.2,1.2-1.2c0,0,0,0,0,0h71c22.6,0,40.9,14.9,40.9,33.4c-1.1,15.6-12.5,28.6-27.9,31.7l0.1,0.3l27.6,50.6
		c0.3,0.6,0.1,1.4-0.5,1.7c-0.2,0.1-0.4,0.2-0.6,0.2h-25.2c-0.5,0-0.9-0.2-1.1-0.6c-2.5-4.5-17.7-31.9-23-41.3
		c-2.3-4.5-6.3-8-11.1-9.5C366.4,340.4,363.4,340.1,360.3,340.1z M394.9,318.2c5.7,1.2,11.2-2.4,12.4-8.1c1.2-5.7-2.4-11.2-8.1-12.4
		c-1.4-0.3-2.9-0.3-4.4,0h-50.3c-0.7,0-1.2,0.5-1.2,1.2c0,0,0,0,0,0v18c0,0.7,0.5,1.2,1.2,1.2c0,0,0,0,0,0L394.9,318.2z"
            />
            <path
              id="Path_2844_00000052080670956912488000000000416112058442833555_"
              class="st0"
              d="M457,274.7h27.5c0.4,0,0.7,0.2,1,0.5
		l30.3,36.7c0.4,0.5,1.2,0.6,1.7,0.1c0.1,0,0.1-0.1,0.1-0.1l31.8-36.8c0.2-0.3,0.6-0.4,0.9-0.4h27c0.7,0,1.2,0.5,1.2,1.2
		c0,0.3-0.1,0.6-0.3,0.8L533,332.7c-0.4,0.5-0.4,1.1,0,1.6l46.8,55.7c0.4,0.5,0.4,1.3-0.1,1.7c-0.2,0.2-0.5,0.3-0.8,0.3h-30.1
		c-0.4,0-0.7-0.2-1-0.4l-30.7-37.9c-0.4-0.5-1.2-0.6-1.7-0.2c-0.1,0.1-0.1,0.1-0.2,0.2l-30.6,37.9c-0.2,0.3-0.6,0.5-1,0.4h-27.9
		c-0.7,0-1.2-0.5-1.2-1.2c0-0.3,0.1-0.6,0.3-0.8l45.6-55.9c0.4-0.5,0.4-1.1,0-1.5l-44.4-55.9c-0.4-0.5-0.3-1.3,0.2-1.7
		C456.5,274.8,456.8,274.7,457,274.7z"
            />
          </g>
          <g>
            <path
              class="st0"
              d="M578.7,292.8l-116.5-72c-3.8-2.4-8.7-2.4-12.5,0l-116.5,72c-3.9,2.4-6.2,6.8-6.2,11.6v143.9
		c0,4.8,2.4,9.2,6.2,11.6l116.5,72c3.8,2.4,8.7,2.4,12.5,0l116.5-72c3.9-2.4,6.2-6.8,6.2-11.6V304.3
		C584.9,299.6,582.5,295.1,578.7,292.8z M575.9,386l-21.2-16.5c-0.3-0.3-0.7-0.4-1.2-0.4c-1,0-1.8,0.8-1.8,1.8v45.2
		c0,0.4-0.1,0.8-0.4,1.2c-0.6,0.8-1.8,0.9-2.6,0.3l-17-13.2c-0.4-0.3-0.7-0.9-0.7-1.4V352c0-0.6-0.3-1.1-0.7-1.4l-22.2-17.3
		c-0.3-0.3-0.7-0.4-1.1-0.4c-1,0-1.8,0.8-1.8,1.8v45.2c0,0.4-0.1,0.8-0.4,1.1c-0.6,0.8-1.8,0.9-2.6,0.3l-19.9-15.5
		c-0.5-0.3-0.7-0.9-0.7-1.4v-49.3c0-1.5-0.7-3-1.9-3.9l-23.9-18.6l-24,18.6c-1.2,0.9-1.9,2.4-1.9,3.9v49.3c0,0.6-0.3,1.1-0.7,1.4
		l-20,15.5c-0.8,0.6-1.9,0.5-2.5-0.3c-0.3-0.3-0.4-0.7-0.4-1.1v-45.2c0-1-0.8-1.8-1.8-1.8c-0.4,0-0.8,0.1-1.2,0.4l-22.2,17.3
		c-0.4,0.3-0.7,0.9-0.7,1.4v50.8c0,0.6-0.3,1.1-0.7,1.4l-17.1,13.2c-0.8,0.6-1.9,0.5-2.6-0.3c-0.3-0.3-0.4-0.7-0.4-1.2v-45.2
		c0-1-0.8-1.8-1.8-1.8c-0.4,0-0.8,0.1-1.1,0.4l-21.4,16.6c-0.2,0.2-0.3,0.3-0.5,0.5v-77.6c0-4.5,2.2-8.6,5.8-10.8L449.6,231
		c3.6-2.2,8.1-2.2,11.7,0l108.8,67.2c3.6,2.2,5.8,6.3,5.8,10.8V386z"
            />
            <path
              class="st0"
              d="M431.8,311.2c-1.2,0.9-1.9,2.4-1.9,4v49.3c0,0.6-0.3,1.1-0.7,1.4l-19.9,15.5c-0.8,0.6-1.9,0.5-2.6-0.3
		c-0.3-0.3-0.4-0.7-0.4-1.2v-45.2c0-1-0.8-1.8-1.8-1.8c-0.4,0-0.8,0.1-1.2,0.4l-22.2,17.3c-0.4,0.3-0.7,0.9-0.7,1.4v50.8
		c0,0.6-0.3,1.1-0.7,1.4l-17,13.2c-0.8,0.6-1.9,0.5-2.6-0.3c-0.3-0.3-0.4-0.7-0.4-1.2v-45.2c0-1-0.8-1.8-1.8-1.8
		c-0.4,0-0.8,0.1-1.2,0.4l-21.4,16.6c-0.2,0.1-0.3,0.3-0.5,0.5v56.9c0,4.5,2.2,8.6,5.8,10.8l108.8,67.2c1.9,1.2,4,1.7,6.2,1.7
		l0-230.7L431.8,311.2z"
            />
          </g>
        </svg>
