<svg xmlns="http://www.w3.org/2000/svg" viewBox="0 0 258 314.54"><defs><style>.cls-1{fill:#6f24ff;}.cls-2{fill:#290a78;}</style></defs><g id="Layer_2" data-name="Layer 2"><g id="Layer_1-2" data-name="Layer 1"><path class="cls-1" d="M251.75,73.73l-116.51-72a11.88,11.88,0,0,0-12.48,0L6.25,73.73A13.56,13.56,0,0,0,0,85.31V229.23A13.54,13.54,0,0,0,6.25,240.8l116.51,72a11.88,11.88,0,0,0,12.48,0l116.51-72A13.54,13.54,0,0,0,258,229.23V85.31A13.56,13.56,0,0,0,251.75,73.73ZM249,167l-21.24-16.54a1.88,1.88,0,0,0-1.16-.4,1.82,1.82,0,0,0-1.8,1.84v45.18a1.82,1.82,0,0,1-3,1.44l-17-13.25a1.82,1.82,0,0,1-.7-1.43V133a1.82,1.82,0,0,0-.71-1.43L181.23,114.3a1.72,1.72,0,0,0-1.15-.4,1.81,1.81,0,0,0-1.8,1.83v45.19a1.85,1.85,0,0,1-.4,1.15,1.82,1.82,0,0,1-2.56.28l-19.94-15.51a1.77,1.77,0,0,1-.7-1.44V96.12a5,5,0,0,0-1.94-4L128.81,73.53l-24,18.64a5,5,0,0,0-1.93,4V145.4a1.83,1.83,0,0,1-.7,1.44l-20,15.51a1.81,1.81,0,0,1-2.55-.28,1.74,1.74,0,0,1-.4-1.15V115.73a1.81,1.81,0,0,0-1.8-1.83,1.76,1.76,0,0,0-1.16.4L54.18,131.56a1.81,1.81,0,0,0-.7,1.43v50.85a1.82,1.82,0,0,1-.7,1.43L35.73,198.52a1.83,1.83,0,0,1-2.56-.28,1.88,1.88,0,0,1-.4-1.16V151.9a1.81,1.81,0,0,0-3-1.44L8.45,167.09a1.94,1.94,0,0,0-.45.54V90.05a12.66,12.66,0,0,1,5.83-10.81L122.66,12a11.12,11.12,0,0,1,11.68,0L243.17,79.24A12.66,12.66,0,0,1,249,90.05Z"/><path class="cls-2" d="M104.84,92.19a5,5,0,0,0-1.94,4v49.28a1.75,1.75,0,0,1-.7,1.43l-20,15.52a1.82,1.82,0,0,1-3-1.44V115.75a1.82,1.82,0,0,0-1.8-1.84,1.88,1.88,0,0,0-1.16.4L54.18,131.58a1.81,1.81,0,0,0-.7,1.43v50.85a1.82,1.82,0,0,1-.7,1.43L35.73,198.53a1.82,1.82,0,0,1-2.56-.27,1.88,1.88,0,0,1-.4-1.16V151.91a1.81,1.81,0,0,0-1.8-1.83,1.85,1.85,0,0,0-1.15.4L8.46,167.11a2,2,0,0,0-.46.54v56.86a12.66,12.66,0,0,0,5.83,10.81l108.83,67.22a11.1,11.1,0,0,0,6.15,1.65V73.53Z"/></g></g></svg>